<svg width="96" height="96" viewBox="0 0 96 96" fill="none" xmlns="http://www.w3.org/2000/svg">
<circle cx="48" cy="48" r="48" fill="#1685D6"/>
<path d="M27 26.9271V67.9938C27 68.8742 28.075 69.2516 28.6441 68.6227L47.8676 47.8692C48.1838 47.4919 48.1838 46.9259 47.8676 46.5485L28.6441 26.2982C28.075 25.6693 27 26.1095 27 26.9271Z" fill="white"/>
<path d="M48.7529 46.2341L68.3559 26.2982C68.925 25.6693 70 26.1095 70 26.9271V68.0567C70 68.5598 69.5574 69 69.0515 69H49.4485C48.9426 69 48.5 68.5598 48.5 68.0567V46.863C48.5 46.6114 48.5632 46.3599 48.7529 46.2341Z" fill="white"/>
</svg>
